<svg width="32" height="32" viewBox="0 0 32 32" fill="none" xmlns="http://www.w3.org/2000/svg">
<path d="M0 16.0963C0.0018616 24.0158 5.72524 30.7588 13.4987 32V20.7488H9.43967V16.0963H13.5035V12.5546C13.3219 10.8764 13.8916 9.20386 15.0581 7.99058C16.2246 6.7773 17.8671 6.14905 19.5401 6.2762C20.7409 6.29572 21.9387 6.40333 23.124 6.59817V10.5568H21.1017C20.4054 10.465 19.7055 10.6964 19.199 11.1857C18.6924 11.675 18.4342 12.3693 18.497 13.073V16.0963H22.9304L22.2216 20.7504H18.497V32C26.9038 30.6632 32.799 22.9378 31.9117 14.4206C31.0244 5.90331 23.6652 -0.424106 15.1656 0.0222236C6.66595 0.468553 0.00135112 7.53238 0 16.0963Z" fill="white"/>
</svg>
