<svg width="37" height="32" viewBox="0 0 37 32" fill="none" xmlns="http://www.w3.org/2000/svg">
<path d="M35.7992 15.7692C35.7992 24.1385 27.9655 31.0385 18.1496 31.0385C8.33369 31.0385 0.5 24.1385 0.5 15.7692C0.5 7.39996 8.33369 0.5 18.1496 0.5C27.9655 0.5 35.7992 7.39996 35.7992 15.7692Z" stroke="#171717"/>
<path d="M18.2997 16.0676C20.4665 16.0676 22.2215 14.58 22.2215 12.7433C22.2215 10.9066 20.4665 9.41895 18.2997 9.41895C16.1329 9.41895 14.3779 10.9066 14.3779 12.7433C14.3779 14.58 16.1329 16.0676 18.2997 16.0676ZM18.2997 17.7298C15.6819 17.7298 10.4561 18.8435 10.4561 21.0542V22.7163H26.1433V21.0542C26.1433 18.8435 20.9175 17.7298 18.2997 17.7298Z" fill="black"/>
</svg>
