<svg width="51" height="54" viewBox="0 0 51 54" fill="none" xmlns="http://www.w3.org/2000/svg">
<path fill-rule="evenodd" clip-rule="evenodd" d="M17.8907 38.3264L21.3061 43.347C21.8896 44.1476 23.796 47.2207 24.4736 47.5762C26.3545 48.5642 27.3432 46.1797 28.4735 44.5928C28.7957 44.1405 29.0182 43.785 29.337 43.347C29.6493 42.9192 29.9039 42.5159 30.2028 42.1023C30.494 41.7 30.7719 41.2813 31.0674 40.8576C31.2324 40.6213 31.3099 40.4705 31.487 40.223C31.7782 39.8146 32.6617 38.6391 32.7524 38.3264C33.9957 38.3264 36.6893 38.8204 37.8994 39.1016C40.4568 39.6954 44.6017 40.8372 46.2535 42.6411C48.1002 44.6579 45.1597 46.3101 43.364 47.07C41.4919 47.8624 40.8575 48.004 38.9511 48.5204C38.1485 48.7374 37.3181 48.9075 36.4413 49.0684C33.3259 49.6409 28.644 50.0636 25.3216 50.0636C24.292 50.0636 23.5613 49.9556 22.4365 49.9607C19.124 49.977 12.6353 48.9869 9.47567 47.9042C7.51721 47.2329 2.0747 45.3047 4.33872 42.6961C5.90305 40.8943 10.2141 39.6883 12.6541 39.1219C13.9052 38.8316 16.5976 38.3264 17.8896 38.3264L17.8907 38.3264ZM25.3216 43.2248C24.9972 43.0058 22.2549 38.8938 21.7711 38.2256C18.865 34.2093 15.8714 29.4922 12.921 25.4485C9.12361 20.2425 9.60852 13.1735 14.3148 8.50432C14.5628 8.25884 14.5584 8.16004 14.8163 7.94512C15.5271 7.35434 16.5434 6.55984 17.3715 6.11167C19.6964 4.85371 20.4647 4.5624 23.1982 4.12441L25.3227 3.93495C26.1353 3.93495 28.4525 4.26192 29.2064 4.44526C30.2382 4.69583 31.5834 5.18985 32.458 5.63802L33.8175 6.42845C34.9146 7.16183 34.9478 7.31258 35.704 7.85548C36.0317 8.09078 35.9819 8.12643 36.2254 8.39635C37.1111 9.37827 37.2406 9.34567 38.185 10.7778C38.4773 11.2219 38.7109 11.7271 38.9677 12.2008C39.3873 12.9759 39.8434 14.3683 40.0294 15.4083C41.0557 21.1511 38.7651 23.9613 35.9929 27.9379L33.3569 31.7372C32.3771 33.2162 25.6006 43.0384 25.3238 43.2258L25.3216 43.2248ZM7.02012 16.9983C7.02012 23.9481 9.28968 25.9058 13.0992 31.509L15.7828 35.3664C14.9636 35.5416 14.1222 35.6292 13.2586 35.7993C9.98162 36.4451 4.80481 37.8803 2.49872 39.9826C0.776076 41.5533 -0.316631 43.4835 0.770541 45.7091C3.70879 51.7269 18.2284 53.1234 23.8801 53.1234C29.5131 53.1234 35.8014 52.8351 41.1697 51.1718C44.1988 50.2337 50.279 48.0396 50.279 44.2454C50.279 42.1879 49.6545 41.3577 48.1456 39.9826C47.2787 39.1922 45.5849 38.304 44.398 37.8171C42.9998 37.2437 41.4764 36.7792 39.8766 36.3646C37.7178 35.8054 36.6461 35.7494 34.8604 35.3664L37.5008 31.5712C40.3948 27.4215 43.622 23.6018 43.622 18.3245C43.622 14.6515 43.1492 13.2418 41.5794 9.9996C41.0967 9.00241 39.2168 6.6729 38.3245 5.85091L37.2196 4.92909C34.8393 2.81247 29.7511 0.875122 26.2095 0.875122C22.3003 0.875122 19.3543 1.38645 16.2201 3.11397C15.3189 3.61104 14.3978 4.15904 13.5974 4.78241L11.4308 6.76865C9.78898 8.46765 8.21136 11.2728 7.61907 13.4669C7.34561 14.4804 7.02123 15.8096 7.02123 16.9983H7.02012Z" fill="#B3B356"/>
<path fill-rule="evenodd" clip-rule="evenodd" d="M20.3326 17.9171C20.2783 17.5942 20.5917 16.484 20.7588 16.0643C21.1551 15.0722 22.1427 14.1575 23.1834 13.7032C28.0269 11.5887 32.71 17.142 28.8882 20.9932C28.6214 21.2622 27.8631 21.7521 27.4634 21.9273C24.937 23.0294 21.9833 21.9741 20.854 19.7842C20.575 19.2443 20.4289 18.4906 20.3315 17.9171H20.3326ZM17.0046 17.5087V18.1208C17.0046 21.9609 20.8175 25.4679 24.9901 25.4679H25.6555C29.8293 25.4679 33.641 21.9599 33.641 18.1208V17.5087C33.641 13.6686 29.8282 10.1616 25.6555 10.1616H24.9901C20.8164 10.1616 17.0046 13.6696 17.0046 17.5087Z" fill="#B3B356"/>
</svg>
