<svg width="49" height="47" viewBox="0 0 49 47" fill="none" xmlns="http://www.w3.org/2000/svg">
<path fill-rule="evenodd" clip-rule="evenodd" d="M34.4716 18.752C35.1945 18.9066 36.1436 19.3767 37.1879 19.3767C37.0297 19.9215 35.8057 20.1364 35.0339 19.5733C34.5809 19.2426 34.7001 19.1893 34.4715 18.752H34.4716ZM37.9829 0.455377H39.4496C41.0024 0.562049 42.5469 1.01236 44.0351 1.83069C44.315 1.9846 44.5287 2.12861 44.783 2.30309C46.2819 3.33629 47.3792 4.58359 48.1494 6.16691C49.448 8.83524 49.2459 12.1809 47.6235 14.6976L46.2322 16.4524C44.0252 18.7565 44.4683 16.6094 45.0322 19.6549C45.3279 21.2488 45.2915 22.362 44.8906 23.9644C43.7635 28.4683 39.0786 32.1386 34.0832 32.1386C32.6819 32.1386 31.9929 31.9747 31.2699 31.9603L22.6364 42.6702C22.0649 43.3719 21.5382 44.0462 20.9461 44.7739C20.1171 45.7926 19.9945 45.9336 18.1767 45.9747C12.8169 46.0951 13.7395 46.9919 12.5668 42.3844C12.2455 41.1211 11.8479 39.995 13.3602 38.9549C13.8248 38.6357 14.9991 38.3469 15.6517 38.2075C15.6517 37.2123 14.8782 35.978 16.932 35.4584C17.3419 35.3547 17.7544 35.2054 18.1742 35.1734C18.1279 34.6614 17.9804 34.3726 17.9804 33.7455C17.9804 32.5904 19.7643 32.2026 20.5999 32.1393C20.5999 31.4711 20.4061 31.0589 20.4061 30.3541C20.4061 29.7278 23.1125 26.9436 23.2525 26.5459C23.3254 26.3379 22.7747 25.326 22.6372 25.0883C22.2529 25.1828 15.1125 29.1967 14.7854 29.3773C13.4728 30.1004 12.1916 30.8082 10.845 31.5526C6.19079 34.128 7.73531 33.891 3.29721 32.5294C2.21895 32.1988 0.708386 32.0182 0.956834 30.5842L1.64421 26.9246C2.13613 24.7911 4.19245 24.6685 6.1469 25.0875C6.15518 24.7393 6.40446 23.8897 6.53531 23.6596C7.10508 22.6569 8.65953 22.9137 9.63924 23.124C10.3067 20.4877 10.691 20.9662 13.2285 21.1605C13.2566 20.8534 13.592 19.6663 13.7138 19.4651C13.9713 19.0415 14.5411 18.803 15.0289 18.5333C15.5109 18.2666 17.626 17.0414 17.9813 16.9652C17.9813 13.9708 18.2206 12.4065 19.8057 10.0757C20.6099 8.89316 21.0388 8.6059 21.9341 7.83939C22.2571 7.5628 22.4285 7.45003 22.7896 7.19859C24.6521 5.90557 27.1076 5.18401 29.7188 5.18401C29.978 4.29177 32.0053 2.51644 33.0107 1.96479C34.6148 1.08399 36.2943 0.569673 37.9838 0.453857L37.9829 0.455377ZM35.1506 17.145C35.7469 17.017 35.1713 16.9667 36.315 16.9667C36.9353 16.9667 37.3544 17.4742 37.5763 17.859C37.0057 17.8475 35.4562 17.5275 35.1515 17.145H35.1506ZM32.7258 18.3946C32.7258 19.5489 33.5076 20.7452 34.6339 21.1909C35.814 21.658 36.9908 21.6085 37.9945 20.922C38.4567 20.6058 39.0703 20.1014 39.1283 19.4659C39.9349 19.4659 40.5734 19.3547 41.1871 19.2183C41.8827 19.0628 42.3888 18.7954 43.0082 18.6628C43.3478 19.3135 43.4935 20.7833 43.4935 21.6976C43.4935 27.0305 37.9258 31.6014 31.5357 30.3762C30.9444 30.2627 30.6306 30.2124 30.2811 30.604L19.4819 43.9624C19.0852 44.463 18.9941 44.3495 18.1734 44.3647L16.6281 44.4607C14.3771 44.623 14.9386 44.8722 14.4301 42.8142C13.8239 40.3584 13.4927 40.3973 15.9026 39.7778C18.0119 39.2353 17.3014 38.164 17.2624 37.2474C17.2492 36.9335 17.1026 37.1605 17.3535 36.999C17.4512 36.9358 18.6595 36.6592 18.9138 36.5693C19.4165 36.3917 19.7444 36.0991 19.8736 35.5719C19.9978 35.0637 19.7262 34.5326 19.7262 33.9253C20.2786 33.9139 22.3457 33.4986 22.3457 32.4083C22.3457 30.0897 21.5258 31.3004 23.1912 29.2592C26.103 25.6902 25.2268 27.1654 24.1999 24.366C23.4098 22.2112 23.5473 19.5581 24.6405 17.5626C24.9237 17.046 25.1804 16.5873 25.5308 16.1507C25.7096 15.9282 25.8455 15.7659 26.0558 15.5625C26.8426 14.8036 26.7829 14.7076 27.9896 13.9502C30.5121 12.3676 33.6368 11.9181 36.5941 12.7836C37.3693 13.0107 38.3159 13.4092 38.9742 13.8069C40.6314 14.8081 41.3345 15.7804 42.3291 17.1465C41.5854 17.5085 40.4624 17.8605 39.3221 17.8605C39.207 16.5888 37.6923 15.3613 36.0235 15.3613C34.2844 15.3613 32.725 16.8006 32.725 18.3961L32.7258 18.3946ZM21.9581 21.4294C21.9581 22.2142 22.1519 22.8116 22.1519 23.4821C21.1258 24.1145 19.7933 24.7271 18.6993 25.3931L12.7473 28.6641C11.1987 29.5167 9.62847 30.3899 8.07981 31.2425C6.51211 32.1058 7.08602 32.0273 5.5266 31.5488C4.99078 31.3842 3.04627 30.7419 2.65289 30.7122C3.2649 29.5396 2.76221 26.4392 4.25455 26.4872C5.86532 26.5398 7.73281 27.3749 7.98788 24.5534C8.92453 24.5534 9.93157 24.8856 10.5701 24.5199C11.1249 24.2021 11.4802 23.377 11.4802 22.5899C12.6786 22.5899 14.1096 23.236 14.715 21.9064C15.6782 19.7905 13.8711 21.0119 17.9009 18.7687C18.3722 18.5058 18.8575 18.3032 19.3014 18.0045C20.2363 17.3759 19.4587 16.8631 19.7519 14.6702C20.0691 12.2983 21.3544 10.2906 23.2931 8.82457C24.7291 7.7388 26.9842 6.79247 28.9419 6.79247C31.4877 6.79247 33.0844 7.04619 35.1912 8.36131L36.5834 9.4006C37.1366 9.90958 37.9598 11.0205 38.3515 11.7009C37.5531 11.5295 36.3747 10.8087 34.18 10.8087C30.3606 10.8087 27.8529 11.6788 25.2798 14.0439C24.2413 14.9986 23.6674 15.8223 22.9908 17.1145C22.4442 18.1584 21.9573 19.9238 21.9573 21.4294L21.9581 21.4294ZM47.2765 9.64824C47.2765 12.36 46.1453 14.8874 43.7842 16.3419C43.173 15.279 42.0558 14.0096 41.0645 13.3109C40.6289 13.0038 40.7473 12.9444 40.5718 12.4255C40.4658 12.1124 40.2985 11.7223 40.1312 11.403C39.1531 9.53471 37.8902 8.08625 35.9664 6.93419C34.9585 6.33073 33.0231 5.47659 31.5606 5.36459C35.1324 0.457663 44.0343 0.927783 46.667 6.99591C46.9668 7.68699 47.2757 8.72248 47.2757 9.649L47.2765 9.64824Z" fill="#B3B356"/>
<path fill-rule="evenodd" clip-rule="evenodd" d="M17.11 42.0462C17.11 42.7121 17.4711 42.8492 18.0798 42.8492C18.5982 42.8492 20.7564 39.8929 21.0595 39.5218L25.2865 34.3071C25.7792 33.7036 26.2148 33.1687 26.7001 32.5729C27.0538 32.1393 29.4306 29.4398 29.4306 28.9262C29.4306 28.5475 28.7399 27.397 27.6277 28.7845L17.7345 41.0129C17.5134 41.2842 17.1109 41.6644 17.1109 42.0462H17.11Z" fill="#B3B356"/>
<path fill-rule="evenodd" clip-rule="evenodd" d="M19.9197 21.3402C19.5197 21.3402 19.1901 21.5696 18.8944 21.7357C18.5309 21.9391 18.294 22.0747 17.9156 22.263L8.21284 27.6156C7.52962 27.9905 6.9557 28.3151 6.26833 28.6831C5.3938 29.1517 5.61326 30.1163 6.46875 30.2337C6.95405 30.3007 9.92465 28.5094 10.371 28.2625L18.1317 23.9781C19.2381 23.3655 21.4476 22.5533 20.4174 21.5963C20.3603 21.5429 19.9826 21.3395 19.9197 21.3395V21.3402Z" fill="#B3B356"/>
</svg>
