<svg width="53" height="43" viewBox="0 0 53 43" fill="none" xmlns="http://www.w3.org/2000/svg">
<path fill-rule="evenodd" clip-rule="evenodd" d="M48.9444 40.8713H47.5206V37.6905H49.2495V40.5912C49.2495 40.8071 49.179 40.8719 48.9444 40.8719V40.8713ZM4.0985 40.5906V37.6899H5.82743V40.8707H4.4036C4.16901 40.8707 4.0985 40.8058 4.0985 40.59V40.5906ZM2.36956 26.7434C2.36956 26.5275 2.44008 26.4627 2.67467 26.4627H50.6733C50.9079 26.4627 50.9784 26.5275 50.9784 26.7434V36.0063H2.36956V26.7434ZM4.0985 23.0947C4.0985 21.2146 5.00771 20.1005 7.04786 20.1005H46.3008C49.5973 20.1005 49.2502 22.7504 49.2502 24.872H4.09918V23.0941L4.0985 23.0947ZM30.1315 15.5161C30.1315 14.6359 30.1647 13.6672 30.6665 13.1082C31.0604 12.6691 31.7527 12.1482 32.5724 12.1482H39.6909C41.1323 12.1482 42.2334 13.2243 42.2334 14.3003C42.2334 16.1468 42.6829 18.5104 39.0806 18.5104H33.386C31.1784 18.5104 30.1315 17.5472 30.1315 15.5161ZM19.962 18.5104H14.2674C13.3175 18.5104 12.5662 18.3476 12.0428 17.9371C10.8325 16.9871 11.1146 16.0763 11.1146 14.2997C11.1146 13.669 11.5234 13.1076 11.8977 12.7751C12.314 12.4058 12.8828 12.1482 13.6565 12.1482H20.7749C21.5838 12.1482 22.2286 12.6385 22.6327 13.0583C23.1846 13.6316 23.2151 14.5892 23.2151 15.5161C23.2151 17.5472 22.1683 18.5104 19.9606 18.5104H19.962ZM9.28463 14.7682C9.28463 15.7551 9.19919 16.4949 9.54769 17.4268C9.73618 17.9296 9.99519 18.1031 10.0982 18.511H6.74207V7.37736H46.6052V18.511H43.2497C43.5569 17.2971 44.0634 18.337 44.0634 14.7688C44.0634 14.198 43.9196 13.3447 43.7094 12.9423C42.8524 11.2986 41.4178 10.4652 39.1823 10.4652H33.2843C30.4515 10.4652 28.4033 12.1457 28.4033 14.301C28.4033 15.4001 28.2677 16.6259 28.6758 17.5117C28.8331 17.8529 29.1342 18.2259 29.2169 18.511H24.1325C24.2125 18.2359 24.5013 17.8635 24.6416 17.5759C25.0898 16.6583 24.9461 15.455 24.9461 14.3003C24.9461 12.1582 22.9066 10.4646 20.0651 10.4646H14.167C12.4849 10.4646 11.5655 10.8863 10.6359 11.613C9.74297 12.3104 9.28599 13.5761 9.28599 14.7682H9.28463ZM44.7753 2.60525C47.3734 2.60525 47.008 5.69308 44.877 5.69308C42.7317 5.69308 42.6395 2.60525 44.7753 2.60525ZM8.47101 5.69308C6.34001 5.69308 5.97456 2.60525 8.57271 2.60525C10.7085 2.60525 10.6162 5.69308 8.47101 5.69308ZM5.41995 5.88022C4.67142 6.06425 4.91144 7.77347 4.91144 8.78092V18.8853C4.57243 18.9583 4.21579 19.1978 3.9351 19.3906C2.02174 20.7012 2.36956 22.9918 2.36956 24.8738C1.96275 24.8738 0.640625 24.7291 0.640625 25.5288V37.0368C0.640625 37.7723 1.98513 37.6918 2.36956 37.6918V41.8083C2.36956 42.069 2.79807 42.4633 3.08148 42.4633H6.74207C7.38686 42.4633 7.65739 41.9287 7.65739 41.3404V37.6918H45.6899V41.3404C45.6899 41.9287 45.9604 42.4633 46.6052 42.4633H50.2658C50.5492 42.4633 50.9777 42.069 50.9777 41.8083V37.6918C51.3622 37.6918 52.7067 37.7723 52.7067 37.0368V25.5288C52.7067 24.7291 51.3846 24.8738 50.9777 24.8738C50.9777 22.9974 51.2537 21.5128 50.1804 20.181C49.9506 19.8959 49.7743 19.6507 49.4699 19.4311C49.2136 19.2459 48.7688 18.9577 48.4352 18.8859L48.4393 7.09353C48.4406 6.58949 48.4589 6.01122 47.9267 5.88085C47.9721 5.37806 49.2075 3.86222 47.4914 1.9777C47.2982 1.76561 47.1422 1.64771 46.8934 1.49862C44.4634 0.0432822 41.4184 1.43998 41.4184 4.29015C41.4184 5.06054 41.6917 5.16597 41.8252 5.69371H11.5207C11.7309 4.86342 11.9275 5.38056 11.9275 3.82229C11.9275 3.06936 11.3383 2.24157 10.9159 1.85232C9.69822 0.731963 7.96996 0.625292 6.51494 1.46181C3.91611 2.95583 5.40096 5.67998 5.41927 5.88023L5.41995 5.88022Z" fill="#B3B356"/>
<path fill-rule="evenodd" clip-rule="evenodd" d="M11.0129 33.667C11.0129 34.1049 11.5126 34.5091 12.0299 34.5091H48.1308C49.6387 34.5091 49.6387 32.8248 48.1308 32.8248H12.0299C11.5126 32.8248 11.0129 33.2291 11.0129 33.667Z" fill="#B3B356"/>
<path fill-rule="evenodd" clip-rule="evenodd" d="M4.09662 33.667C4.09662 34.2415 4.58072 34.5091 5.21534 34.5091H8.36811C9.63667 34.5091 9.63667 32.8248 8.36811 32.8248H5.21534C4.58072 32.8248 4.09662 33.0924 4.09662 33.667Z" fill="#B3B356"/>
</svg>
