<svg width="33" height="38" viewBox="0 0 33 38" fill="none" xmlns="http://www.w3.org/2000/svg">
<path fill-rule="evenodd" clip-rule="evenodd" d="M0.105587 2.70462C0.105587 5.34554 1.69956 5.29295 3.85554 5.29295C5.88293 5.29295 7.92937 5.26666 9.95359 5.28857C11.6762 5.30756 13.5337 5.87138 14.4862 6.61633C15.4245 7.3496 16.7867 8.59556 17.0963 9.82108C13.8925 9.82108 10.6902 9.82108 7.48643 9.82108C5.52254 9.82108 2.00597 9.43399 0.888284 10.436C-0.467542 11.6513 -0.261152 14.2805 2.5791 14.5522C3.63328 14.653 15.4245 14.5654 17.0963 14.5654C16.7835 15.7997 15.4674 16.9609 14.5482 17.719C13.6083 18.4946 11.7016 19.0789 9.952 19.0979C7.96748 19.1198 5.95914 19.0935 3.96985 19.0935C2.83947 19.0935 2.01232 18.9752 1.23121 19.3769C0.411998 19.799 0.102412 20.7353 0.102412 21.5737C0.102412 22.6313 1.19628 23.3894 1.83133 23.9722C2.58227 24.6631 3.24749 25.2751 4.00002 25.9675L12.7303 33.9998C13.4813 34.6907 14.1465 35.3027 14.899 35.9951C15.8087 36.8321 16.358 37.5317 17.6821 37.5317C18.8919 37.5317 20.1429 36.4596 20.1429 35.1596C20.1429 33.8917 18.4886 32.7217 17.7107 32.0059C16.5549 30.9426 9.15978 24.2599 8.77399 23.7312C14.1925 23.7312 16.5787 22.6882 19.9381 19.2308C21.1479 17.9848 21.9242 16.3211 22.3688 14.5668C24.5168 14.5668 26.6665 14.5654 28.8145 14.5668C30.3053 14.5683 31.5627 14.6326 32.3311 13.3822C32.7534 12.6942 32.7867 11.8032 32.3739 11.0773C31.6294 9.76557 30.3481 9.82254 28.8145 9.824C26.6665 9.82546 24.5168 9.824 22.3688 9.824C22.2338 9.56546 22.0719 8.94905 21.9449 8.59702C21.7559 8.07118 21.6385 7.87106 21.4337 7.45039C21.0542 6.666 20.6335 5.97217 20.1413 5.29588C23.4785 5.29588 26.8998 5.36599 30.2259 5.30026C33.4789 5.23745 33.4694 0.658203 30.1037 0.658203H2.44574C1.24232 0.658203 0.102413 1.57989 0.102413 2.70754L0.105587 2.70462Z" fill="#B3B356"/>
</svg>
