<svg width="49" height="46" viewBox="0 0 49 46" fill="none" xmlns="http://www.w3.org/2000/svg">
<path fill-rule="evenodd" clip-rule="evenodd" d="M3.54857 36.3824V9.72699C3.54857 6.32523 6.14932 3.93609 9.84271 3.93609H38.8145C42.5119 3.93609 45.1087 6.3289 45.1087 9.72699V36.3824C45.1087 39.7805 42.5119 42.1733 38.8145 42.1733H9.84271C6.15132 42.1733 3.54857 39.7796 3.54857 36.3824ZM0.351562 9.08376V37.1176C0.351562 41.2324 4.59726 45.1138 9.04271 45.1138H39.6125C40.9439 45.1138 42.0894 44.7159 43.0692 44.3419C44.5064 43.7915 46.2712 42.2781 47.0373 41.0073C47.7274 39.8623 48.3047 38.642 48.3047 37.1175V8.99187C48.3047 7.35898 47.5746 5.77296 46.6477 4.54256C45.8627 3.50144 44.3386 2.25358 43.0702 1.76748C41.9995 1.35765 40.9848 0.995605 39.5137 0.995605H9.14358C7.40376 0.995605 6.18727 1.47803 4.8819 2.12953C4.60825 2.26644 4.45943 2.35925 4.20775 2.52006C1.97753 3.94435 0.352561 6.509 0.352561 9.08376L0.351562 9.08376Z" fill="#B3B356"/>
<path fill-rule="evenodd" clip-rule="evenodd" d="M8.34622 9.26753V19.1025C8.34622 20.3026 10.5525 20.9752 11.3834 19.5996C11.711 19.0584 11.5422 14.2296 11.5422 13.4044L34.8441 34.7973C33.9363 34.8111 28.6369 34.6843 28.0856 34.9664C26.5904 35.7309 27.3215 37.7608 28.6259 37.7608H39.3156C39.8179 37.7608 40.3143 37.3041 40.3143 36.8419V27.0069C40.3143 25.8068 38.1081 25.1342 37.2771 26.5098C36.9495 27.051 37.1183 31.8798 37.1183 32.705L13.8164 11.3121C14.7243 11.2983 20.0236 11.4251 20.575 11.143C22.0701 10.3785 21.339 8.34863 20.0346 8.34863H9.34497C8.8426 8.34863 8.34622 8.80533 8.34622 9.26753Z" fill="#B3B356"/>
</svg>
