<svg width="59" height="54" viewBox="0 0 59 54" fill="none" xmlns="http://www.w3.org/2000/svg">
<path fill-rule="evenodd" clip-rule="evenodd" d="M5.22903 33.2376H25.4205V51.1955H5.22903V33.2376H5.22903ZM46.5093 30.5543C46.5093 31.1237 46.7702 31.7928 47.4067 31.7928H53.6883V35.508H47.5185C46.1261 35.508 46.2688 37.5721 47.406 37.5721H53.6876V41.2874H47.5178C46.1254 41.2874 46.2681 43.3514 47.4053 43.3514H53.6869V47.0667H50.2092C48.7985 47.0667 48.8252 49.1308 50.2092 49.1308H53.6869V51.1948H41.5717V26.0128H53.6869V29.7281H47.5171C46.8117 29.7281 46.5072 30.4081 46.5072 30.5537L46.5093 30.5543ZM30.5804 3.20468L32.6353 4.20371C33.4005 4.55505 33.937 4.85398 34.6931 5.20015L37.7642 6.70904C38.1215 6.89991 38.5167 7.05326 38.8824 7.22861C39.2439 7.40202 39.5062 7.57154 39.8895 7.74689L47.1817 11.2551V23.9494H40.3389C39.6335 23.9494 39.329 24.6294 39.329 24.775V51.1955H35.627V12.8028C35.627 12.5 35.0581 11.9772 34.7296 11.9772H30.579V3.20468L30.5804 3.20468ZM28.3369 1.44991V11.9766H16.8955C16.3413 11.9766 15.8856 12.3952 15.8856 12.9057V23.9487C15.8856 24.8856 18.129 25.2182 18.129 23.7423V14.0413H33.385V18.1694H29.2343C28.2315 18.1694 27.8278 20.2334 29.4587 20.2334H33.385V23.9487H29.2343C28.2315 23.9487 27.8278 26.0128 29.4587 26.0128H33.385V29.7281H29.2343C28.2315 29.7281 27.8278 31.7921 29.4587 31.7921H33.385V35.5074H29.2343C29.0472 35.5074 28.7132 35.7365 28.6056 35.8581C28.0198 36.5207 28.4509 37.5714 29.4587 37.5714H33.385V41.2867H29.2343C28.2315 41.2867 27.8278 43.3508 29.4587 43.3508H33.385V47.0661H29.2343C29.0472 47.0661 28.7132 47.2951 28.6056 47.4168C28.0198 48.0793 28.4509 49.1301 29.4587 49.1301H33.385V51.1942H27.6639V31.9979C27.6639 31.6957 27.095 31.1722 26.7666 31.1722H3.88297C3.55384 31.1722 2.98561 31.6957 2.98561 31.9979V51.1942H1.63955C1.0031 51.1942 0.742188 51.8632 0.742188 52.4326C0.742188 52.7354 1.31113 53.2582 1.63955 53.2582H57.2777C57.9142 53.2582 58.1751 52.5892 58.1751 52.0198C58.1751 51.7176 57.6062 51.1942 57.2777 51.1942H55.9317V24.7737C55.9317 24.6255 55.6258 23.9481 54.9218 23.9481H49.4251V10.5311C49.4251 9.75917 48.4349 9.51912 47.3293 8.94973L41.0858 5.92159C40.571 5.68736 40.2573 5.48549 39.7784 5.26679C38.9042 4.86821 38.1756 4.47546 37.2719 4.06394C36.2325 3.59031 30.1155 0.417236 29.5698 0.417236C28.8124 0.417236 28.3355 0.763402 28.3355 1.44926L28.3369 1.44991Z" fill="#B3B356"/>
<path fill-rule="evenodd" clip-rule="evenodd" d="M9.94005 37.3657H11.7348V39.017H9.94005V37.3657ZM7.58411 36.7465V39.8426C7.58411 40.6753 8.01028 41.1845 8.93016 41.1845H12.8565C13.2229 41.1845 13.6652 40.96 13.827 40.7355C14.2419 40.1609 14.0907 37.717 14.0907 36.85C14.0907 36.0664 13.8031 35.3016 12.969 35.3016H8.70652C7.87596 35.3016 7.58481 35.9642 7.58481 36.7465H7.58411Z" fill="#B3B356"/>
<path fill-rule="evenodd" clip-rule="evenodd" d="M9.94075 45.3126H11.7355V47.0674H9.94075V45.3126ZM7.58481 44.5899V47.6859C7.58481 48.4682 7.87597 49.1308 8.70652 49.1308H12.969C14.4993 49.1308 14.0907 46.432 14.0907 44.7963C14.0907 44.0192 13.8108 43.2479 12.8565 43.2479H8.70582C7.97724 43.2479 7.58411 43.9105 7.58411 44.5899H7.58481Z" fill="#B3B356"/>
<path fill-rule="evenodd" clip-rule="evenodd" d="M19.028 37.3657H20.8227V39.017H19.028V37.3657ZM16.7845 36.1273V40.3589C16.7845 40.531 17.0335 40.8383 17.1657 40.9373C17.7614 41.3831 20.8009 41.1846 22.0569 41.1846C22.7588 41.1846 23.1786 40.6125 23.1786 39.9461V36.5401C23.1786 35.8523 22.7925 35.3016 22.0569 35.3016H17.6819C17.3535 35.3016 16.7845 35.8251 16.7845 36.1273Z" fill="#B3B356"/>
<path fill-rule="evenodd" clip-rule="evenodd" d="M19.028 45.3127H20.8227V47.0674H19.028V45.3127ZM16.7845 44.0743V48.3059C16.7845 48.608 17.3535 49.1315 17.6819 49.1315H22.0569C22.7925 49.1315 23.1786 48.5808 23.1786 47.8931V44.487C23.1786 43.8206 22.7588 43.2486 22.0569 43.2486C20.8009 43.2486 17.7614 43.0506 17.1657 43.4958C17.0335 43.5948 16.7845 43.9021 16.7845 44.0743Z" fill="#B3B356"/>
<path fill-rule="evenodd" clip-rule="evenodd" d="M38.209 18.995C38.209 20.3493 37.8377 22.401 39.3307 22.401C40.8238 22.401 40.4525 20.3493 40.4525 18.995C40.4525 18.8559 40.2324 18.5479 40.1423 18.4547C39.508 17.7974 38.209 18.315 38.209 18.995H38.209Z" fill="#B3B356"/>
<path fill-rule="evenodd" clip-rule="evenodd" d="M42.6967 18.9951C42.6967 20.3493 42.3254 22.4011 43.8184 22.4011C45.3115 22.4011 44.9401 20.3493 44.9401 18.9951C44.9401 18.8559 44.72 18.5479 44.63 18.4548C44.2467 18.0581 43.4296 18.0769 43.0611 18.4011C42.9612 18.4891 42.6974 18.8462 42.6974 18.9951H42.6967Z" fill="#B3B356"/>
<path fill-rule="evenodd" clip-rule="evenodd" d="M38.2107 12.9057C38.2107 14.126 37.8134 16.1053 39.3324 16.1053C40.8515 16.1053 40.4541 14.126 40.4541 12.9057C40.4541 12.3201 39.7269 12.0801 39.108 12.0801C38.7789 12.0801 38.2107 12.6035 38.2107 12.9057Z" fill="#B3B356"/>
<path fill-rule="evenodd" clip-rule="evenodd" d="M42.6963 12.9057C42.6963 14.126 42.2989 16.1053 43.818 16.1053C45.3371 16.1053 44.9397 14.126 44.9397 12.9057C44.9397 12.3201 44.2125 12.0801 43.5936 12.0801C43.2645 12.0801 42.6963 12.6035 42.6963 12.9057Z" fill="#B3B356"/>
<path fill-rule="evenodd" clip-rule="evenodd" d="M15.8866 27.7675V27.8711C15.8866 29.1736 18.13 29.1645 18.13 27.8711V27.7675C18.13 26.4741 15.8866 26.465 15.8866 27.7675Z" fill="#B3B356"/>
<path fill-rule="evenodd" clip-rule="evenodd" d="M44.042 48.0988C44.042 48.5867 44.5371 49.1309 45.2762 49.1309C46.5069 49.1309 46.9971 47.0668 44.9393 47.0668C44.523 47.0668 44.042 47.7015 44.042 48.0988Z" fill="#B3B356"/>
</svg>
