<svg width="33" height="27" viewBox="0 0 33 27" fill="none" xmlns="http://www.w3.org/2000/svg">
<path d="M29.1128 4.25733C30.527 3.40575 31.5852 2.06485 32.0897 0.484972C30.7609 1.27917 29.3069 1.83863 27.7908 2.13915C25.6888 -0.100543 22.3584 -0.645583 19.6605 0.808587C16.9627 2.26276 15.5653 5.35613 16.2492 8.36021C10.8059 8.08495 5.73448 5.49505 2.29697 1.23499C0.502998 4.35175 1.41976 8.33603 4.39201 10.3401C3.31721 10.3053 2.26625 10.0122 1.32675 9.48524C1.32675 9.51385 1.32675 9.54245 1.32675 9.57105C1.32737 12.8177 3.59907 15.6143 6.75839 16.2577C5.76145 16.5309 4.71574 16.5711 3.70102 16.3753C4.58952 19.1517 7.12999 21.0538 10.0256 21.1106C7.62738 23.0065 4.66568 24.0347 1.61703 24.0296C1.07666 24.0304 0.536712 23.9991 0 23.9359C3.09584 25.9397 6.69902 27.0033 10.379 26.9995C15.4986 27.035 20.4188 25.002 24.0389 21.3553C27.659 17.7087 29.6769 12.7527 29.6413 7.59589C29.6413 7.30033 29.6345 7.00636 29.6208 6.71397C30.9467 5.7488 32.091 4.55313 33 3.18315C31.7648 3.73464 30.4545 4.09672 29.1128 4.25733Z" fill="white"/>
</svg>
