<svg width="21" height="24" viewBox="0 0 21 24" fill="none" xmlns="http://www.w3.org/2000/svg">
<path d="M7.10022 23.4135C7.64663 23.4135 8.21171 23.4041 8.7908 23.3899C10.0517 23.3663 11.4528 23.3663 12.7137 23.3899C15.7119 23.4466 18.2991 23.4985 19.7609 22.0537C20.4801 21.3408 20.8443 20.3351 20.8443 19.0698C20.8443 14.5561 16.319 10.8828 10.7522 10.8828C5.18548 10.8828 0.660156 14.5561 0.660156 19.0698C0.660156 20.3351 1.02442 21.3408 1.74362 22.0537C2.92048 23.2199 4.83523 23.4135 7.10022 23.4135ZM10.7522 13.0075C15.1561 13.0075 18.7428 15.727 18.7428 19.0698C18.7428 20.0849 18.4019 20.4249 18.2898 20.5382C17.4585 21.3597 15.1748 21.3172 12.7557 21.27C11.4668 21.2464 10.0377 21.2464 8.74877 21.27C6.32966 21.3172 4.04598 21.3644 3.2147 20.5382C3.10262 20.4249 2.7617 20.0896 2.7617 19.0745C2.7617 15.727 6.34367 13.0075 10.7522 13.0075Z" fill="#B3B356"/>
<path d="M10.7531 10.5952C13.4478 10.5952 15.5353 7.52149 15.5353 4.87748C15.5353 2.20987 13.3871 0.0427246 10.7531 0.0427246C8.11919 0.0427246 5.97095 2.20987 5.97095 4.87748C5.97095 7.52149 8.05848 10.5952 10.7531 10.5952ZM10.7531 2.16737C12.2289 2.16737 13.4338 3.38079 13.4338 4.87748C13.4338 6.445 12.1355 8.4705 10.7531 8.4705C9.37078 8.4705 8.07249 6.445 8.07249 4.87748C8.07249 3.38079 9.27738 2.16737 10.7531 2.16737Z" fill="#B3B356"/>
</svg>
