<svg width="47" height="37" viewBox="0 0 47 37" fill="none" xmlns="http://www.w3.org/2000/svg">
<path d="M28.7196 0C18.6345 0 10.4297 8.29907 10.4297 18.5C10.4297 20.7285 10.819 22.8993 11.5977 24.9836L0.857357 33.1098C0.116644 33.6669 -0.177742 34.6371 0.107148 35.5208C0.401534 36.4045 1.21822 37 2.12986 37H28.7101C38.7952 37 47 28.7009 47 18.5C47 8.29907 38.8047 0 28.7196 0ZM28.7196 32.6776H8.55888L15.5102 27.4138C16.3364 26.7895 16.6023 25.6656 16.1464 24.7339C15.1873 22.7648 14.703 20.6612 14.703 18.5C14.703 10.6812 20.9896 4.32243 28.7196 4.32243C36.4496 4.32243 42.7361 10.6812 42.7361 18.5C42.7361 26.3188 36.4496 32.6776 28.7196 32.6776Z" fill="#B3B356"/>
</svg>
