<svg width="32" height="25" viewBox="0 0 32 25" fill="none" xmlns="http://www.w3.org/2000/svg">
<path d="M5.13293 25H26.8671C29.6986 25 32 22.3277 32 19.0518V9.28513C32 9.21052 31.9871 9.1427 31.9806 9.06809C32.0388 8.27455 31.9224 7.47423 31.6186 6.71459L30.1317 3.03174C29.3818 1.19371 27.6687 0 25.7551 0H6.24485C4.33131 0 2.61818 1.19371 1.86828 3.03852L0.381414 6.72138C0.0775757 7.48101 -0.0387879 8.28812 0.0193939 9.07488C0.0129293 9.14948 0 9.21731 0 9.28513V19.045C0 22.3277 2.30141 25 5.13293 25ZM26.8671 21.9479H5.13293C3.90465 21.9479 2.90909 20.6457 2.90909 19.0518V13.2596C3.48444 13.5174 4.10505 13.653 4.75151 13.653H8.72081C9.43838 13.653 10.0978 14.1278 10.4404 14.8942C11.4554 17.1324 13.6339 18.577 15.9935 18.577C18.3531 18.577 20.5317 17.1324 21.5467 14.8942C21.8958 14.1278 22.5552 13.653 23.2663 13.653H27.2356C27.882 13.653 28.5026 13.5106 29.078 13.2528V19.045C29.0909 20.6457 28.0954 21.9479 26.8671 21.9479ZM3.05778 7.91508L4.54465 4.23223C4.83556 3.51329 5.50141 3.05209 6.24485 3.05209H25.7551C26.4986 3.05209 27.158 3.51329 27.4489 4.23223L28.9358 7.91508C29.1814 8.5255 29.1232 9.1834 28.7741 9.73277C28.425 10.2821 27.8691 10.6009 27.242 10.6009H23.2727C21.4238 10.6009 19.756 11.7404 18.922 13.5852C18.3855 14.7653 17.2347 15.525 15.9935 15.525C14.7523 15.525 13.6016 14.7653 13.0651 13.5852C12.2311 11.7472 10.5632 10.6009 8.71434 10.6009H4.75151C4.12444 10.6009 3.56202 10.2821 3.21293 9.73277C2.8703 9.1834 2.81212 8.51872 3.05778 7.91508Z" fill="#B3B356"/>
</svg>
