<svg width="40" height="43" viewBox="0 0 40 43" fill="none" xmlns="http://www.w3.org/2000/svg">
<path d="M5.02467 41.1799C6.80999 42.4658 8.67813 43 10.5739 43C18.0097 43 25.6939 34.7403 29.0069 31.1792C33.1573 26.7081 44.1913 14.8477 38.3108 5.40097C36.0561 1.77065 33.8291 0.00989188 31.51 0H31.5008C29.8443 0 28.5743 0.969404 27.9117 1.86957L23.1816 6.95399C21.7091 8.53669 21.7643 11.3064 22.4453 13.2057C23.1448 15.184 24.5436 16.4898 26.2277 16.7667C26.1356 17.7955 25.1969 20.3773 22.0772 23.7306C18.9575 27.084 16.5556 28.083 15.5986 28.1919C15.3409 26.3816 14.1261 24.8781 12.2856 24.1263C10.5187 23.3943 7.94192 23.3349 6.46949 24.9176L1.73931 30.0021C0.89266 30.7044 0 32.0794 0 33.8698C0.00920268 36.3625 1.64728 38.7465 5.02467 41.1799ZM4.26084 33.5335C4.42649 33.4346 4.42649 33.4049 4.56453 33.2664L9.33152 28.1424C9.63521 28.0237 10.5003 28.0534 11.1352 28.449C11.3745 28.5974 11.5034 28.7557 11.5126 28.9041C11.5954 30.5066 12.4512 31.7925 13.804 32.3464C16.5464 33.4741 20.8349 31.377 25.0129 26.8861C29.1909 22.3952 31.1419 17.7757 30.0928 14.8378C29.5774 13.3837 28.3811 12.4638 26.8902 12.3747C26.7522 12.3648 26.6142 12.2264 26.4669 11.9692C26.0988 11.2866 26.0712 10.3568 26.1816 10.0304L30.9486 4.90637C31.0407 4.80745 31.1235 4.69864 31.1971 4.57994C31.1971 4.57994 31.3351 4.45135 31.5008 4.45135C31.6296 4.45135 32.8076 4.55026 34.869 7.87394C38.8629 14.2839 29.5682 24.2648 26.0712 28.0237C22.5742 31.7826 13.2887 41.7635 7.32534 37.4803C4.28845 35.2942 4.15041 34.0182 4.14121 33.8797C4.13201 33.672 4.27005 33.5335 4.26084 33.5335Z" fill="#B3B356"/>
</svg>
