<svg width="47" height="34" viewBox="0 0 47 34" fill="none" xmlns="http://www.w3.org/2000/svg">
<path d="M46.9525 1.73568C46.943 1.66818 46.9145 1.60068 46.8861 1.53318C46.8671 1.46568 46.8481 1.39819 46.8196 1.33069C46.7626 1.19569 46.6962 1.07033 46.6202 0.954623C46.6202 0.954623 46.6202 0.954623 46.6202 0.94498C46.6012 0.916052 46.5727 0.887124 46.5442 0.858196C46.4873 0.781055 46.4208 0.694271 46.3543 0.626773C46.2974 0.578559 46.2404 0.530346 46.1834 0.482133C46.136 0.443562 46.0885 0.395349 46.0315 0.356778C45.9745 0.318208 45.9081 0.28928 45.8416 0.250709C45.7846 0.221781 45.7277 0.18321 45.6612 0.154282C45.5947 0.125355 45.5283 0.106069 45.4523 0.0867839C45.3859 0.0674986 45.3289 0.0482133 45.2624 0.028928C45.158 0.00964266 45.063 0 44.9586 0C44.9301 0.00964266 44.9016 0 44.8636 0H44.8541H2.15535H2.13636C2.09838 0 2.0699 0.00964266 2.04141 0.00964266C1.93697 0.0192853 1.83253 0.0192853 1.72808 0.0385706C1.66162 0.0578559 1.60465 0.0771412 1.53818 0.0964265C1.47172 0.115712 1.39576 0.134997 1.32929 0.163925C1.26283 0.192853 1.21535 0.221781 1.14889 0.250709C1.09192 0.28928 1.02545 0.318208 0.95899 0.356778C0.90202 0.395349 0.854545 0.443562 0.807071 0.482133C0.750101 0.530346 0.693131 0.568917 0.636162 0.626773C0.569697 0.694271 0.503232 0.781055 0.446263 0.858196C0.417778 0.887124 0.389293 0.916052 0.370303 0.94498C0.370303 0.94498 0.370303 0.94498 0.370303 0.954623C0.294343 1.07033 0.218384 1.19569 0.170909 1.33069C0.142424 1.39819 0.123434 1.46568 0.104444 1.53318C0.0854545 1.60068 0.0569697 1.66818 0.0474747 1.73568C0.0189899 1.88032 0 2.02496 0 2.15995C0 2.15995 0 2.15995 0 2.1696V31.8304C0 33.0261 0.95899 34 2.13636 34H44.8636C46.041 34 47 33.0261 47 31.8304V2.1696C47 2.1696 47 2.1696 47 2.15995C47 2.02496 46.981 1.88032 46.9525 1.73568ZM37.9513 4.33919L23.5 14.3676L9.04869 4.33919H37.9513ZM4.27273 29.6608V6.27737L22.2941 18.7839C22.6549 19.0346 23.0822 19.16 23.5 19.16C23.9178 19.16 24.3451 19.0346 24.7059 18.7839L42.7273 6.27737V29.6608H4.27273Z" fill="#B3B356"/>
</svg>
